<svg xmlns="http://www.w3.org/2000/svg" viewBox="0 0 151.56 151.56"><defs><style>.cls-1{fill:#000101;}.cls-2{fill:#fff;fill-rule:evenodd;}</style></defs><title>Asset 3</title><g id="Layer_2" data-name="Layer 2"><g id="Layer_1-2" data-name="Layer 1"><rect class="cls-1" width="151.56" height="151.56"/><path class="cls-2" d="M95.42,98.14H88.51l-1.37,3.2H84.5l6.22-13.82h2.52l6.24,13.82H96.8l-1.38-3.2Zm-.85-2-2.61-6-2.59,6Zm10.34-9.44h2.46v14.65h-2.46V86.69Zm10.44,14.79a5.85,5.85,0,0,1-2.88-.7,5,5,0,0,1-2-1.92,5.77,5.77,0,0,1,0-5.58,5.07,5.07,0,0,1,2-1.91,6.4,6.4,0,0,1,5.78,0,5.13,5.13,0,0,1,2,1.91,5.77,5.77,0,0,1,0,5.58,5.09,5.09,0,0,1-2,1.92,5.9,5.9,0,0,1-2.9.7Zm0-2.12a3,3,0,0,0,2.25-.9,3.65,3.65,0,0,0,0-4.78,3,3,0,0,0-2.25-.91,3,3,0,0,0-2.24.91,3.69,3.69,0,0,0,0,4.78,3,3,0,0,0,2.24.9Zm-14-11.93a1.3,1.3,0,0,1,.93.37,1.31,1.31,0,0,1,.37,1,2.68,2.68,0,0,1-.07.56c0,.18-.15.45-.28.81l-.84,2.27h-1.29l.64-2.46a1,1,0,0,1-.55-.44,1.31,1.31,0,0,1,1.09-2.06Z"/><path class="cls-2" d="M45.3,112v4.21H52v2.17H45.3v5.29H42.73V109.88H52.82V112Zm9.58,1.13h2.46V123.7H54.88V113.16Zm1.24-1.74A1.61,1.61,0,0,1,55,111a1.47,1.47,0,0,1,0-2.12,1.75,1.75,0,0,1,2.25,0,1.29,1.29,0,0,1,.46,1,1.5,1.5,0,0,1-.45,1.1,1.54,1.54,0,0,1-1.13.44ZM66.56,113a4.43,4.43,0,0,1,3.2,1.16,4.62,4.62,0,0,1,1.2,3.46v6H68.5V118a3,3,0,0,0-.65-2.08,2.42,2.42,0,0,0-1.86-.7,2.82,2.82,0,0,0-2.15.82,3.25,3.25,0,0,0-.79,2.36v5.33H60.58V113.16h2.35v1.36a3.84,3.84,0,0,1,1.54-1.11,5.56,5.56,0,0,1,2.09-.37Zm11.57,0a5.15,5.15,0,0,1,3.56,1.11,4.31,4.31,0,0,1,1.24,3.37v6.18H80.6v-1.28a2.87,2.87,0,0,1-1.29,1,5.59,5.59,0,0,1-4.1,0,3.19,3.19,0,0,1-1.37-1.12,3,3,0,0,1,.57-3.91,5.25,5.25,0,0,1,3.33-.86h2.72v-.16a2.17,2.17,0,0,0-.66-1.7,2.9,2.9,0,0,0-2-.59,5.46,5.46,0,0,0-1.74.28,4.09,4.09,0,0,0-1.45.77l-1-1.8a6.16,6.16,0,0,1,2-1,9,9,0,0,1,2.47-.33Zm-.34,9a3.21,3.21,0,0,0,1.65-.42,2.36,2.36,0,0,0,1-1.22v-1.22H77.91c-1.42,0-2.13.47-2.13,1.4a1.28,1.28,0,0,0,.53,1.07,2.48,2.48,0,0,0,1.48.39Zm14.28-9a4.44,4.44,0,0,1,3.2,1.16,4.62,4.62,0,0,1,1.2,3.46v6H94V118a2.93,2.93,0,0,0-.65-2.08,2.38,2.38,0,0,0-1.85-.7,2.86,2.86,0,0,0-2.16.82,3.3,3.3,0,0,0-.79,2.36v5.33H86.09V113.16h2.35v1.36A3.77,3.77,0,0,1,90,113.41a5.49,5.49,0,0,1,2.09-.37Zm12.47,10.8a6.19,6.19,0,0,1-2.94-.69,5.1,5.1,0,0,1-2-1.93,5.7,5.7,0,0,1,0-5.58,5.16,5.16,0,0,1,2-1.91,6.2,6.2,0,0,1,3-.69,5.71,5.71,0,0,1,2.74.63,4.15,4.15,0,0,1,1.77,1.82l-1.9,1.1A3,3,0,0,0,106,115.5a3.09,3.09,0,0,0-1.5-.37,3.13,3.13,0,0,0-2.29.9,3.24,3.24,0,0,0-.9,2.4,3.28,3.28,0,0,0,.89,2.4,3.11,3.11,0,0,0,2.3.89,3.19,3.19,0,0,0,1.5-.36,3,3,0,0,0,1.13-1.1l1.9,1.11a4.33,4.33,0,0,1-1.79,1.83,5.66,5.66,0,0,1-2.72.64Zm16.39-5.35c0,.17,0,.41,0,.73h-8.27a2.84,2.84,0,0,0,1.13,1.84,3.71,3.71,0,0,0,2.28.68,3.87,3.87,0,0,0,2.87-1.14l1.32,1.52a4.36,4.36,0,0,1-1.8,1.28,7.09,7.09,0,0,1-5.51-.25,5,5,0,0,1-2-1.93,5.42,5.42,0,0,1-.72-2.79,5.52,5.52,0,0,1,.7-2.78,5,5,0,0,1,2-1.92,5.67,5.67,0,0,1,2.8-.69,5.55,5.55,0,0,1,2.75.68,4.85,4.85,0,0,1,1.9,1.91,5.9,5.9,0,0,1,.68,2.86ZM115.6,115a3,3,0,0,0-2,.7,3,3,0,0,0-1,1.87h6a2.92,2.92,0,0,0-1-1.86A3,3,0,0,0,115.6,115Z"/></g></g></svg>